<mxfile host="app.diagrams.net" agent="Mozilla/5.0 (Windows NT 10.0; Win64; x64) AppleWebKit/537.36 (KHTML, like Gecko) Chrome/131.0.0.0 Safari/537.36" version="26.0.6">
  <diagram name="第 1 页" id="22AQigDGreSNG4JmmEv_">
    <mxGraphModel dx="1066" dy="620" grid="1" gridSize="10" guides="1" tooltips="1" connect="1" arrows="1" fold="1" page="1" pageScale="1" pageWidth="827" pageHeight="1169" math="0" shadow="0">
      <root>
        <mxCell id="0" />
        <mxCell id="1" parent="0" />
        <mxCell id="bqi6BstOvzk-IcpmwtKL-62" value="LLMOps项目服务架构设计图（docker-compose）" style="text;html=1;align=center;verticalAlign=middle;whiteSpace=wrap;rounded=0;fontStyle=1;labelBackgroundColor=light-dark(#f8cecc, #ededed);fontSize=14;" parent="1" vertex="1">
          <mxGeometry x="400.5" y="30" width="330" height="30" as="geometry" />
        </mxCell>
        <mxCell id="bqi6BstOvzk-IcpmwtKL-1" value="缓存服务&lt;div&gt;Redis&lt;/div&gt;" style="rounded=1;whiteSpace=wrap;html=1;fillColor=#dae8fc;strokeColor=#333333;" parent="1" vertex="1">
          <mxGeometry x="370" y="380" width="80" height="40" as="geometry" />
        </mxCell>
        <mxCell id="bqi6BstOvzk-IcpmwtKL-2" value="&lt;div&gt;DB数据库服务&lt;/div&gt;&lt;div&gt;Postgres&lt;/div&gt;" style="rounded=1;whiteSpace=wrap;html=1;fillColor=#dae8fc;strokeColor=#333333;" parent="1" vertex="1">
          <mxGeometry x="488" y="380" width="100" height="40" as="geometry" />
        </mxCell>
        <mxCell id="bqi6BstOvzk-IcpmwtKL-3" value="向量数据库服务&lt;div&gt;Weaviate&lt;/div&gt;" style="rounded=1;whiteSpace=wrap;html=1;fillColor=#dae8fc;strokeColor=#333333;" parent="1" vertex="1">
          <mxGeometry x="740" y="380" width="110" height="40" as="geometry" />
        </mxCell>
        <mxCell id="bqi6BstOvzk-IcpmwtKL-27" style="edgeStyle=orthogonalEdgeStyle;rounded=0;orthogonalLoop=1;jettySize=auto;html=1;exitX=0;exitY=0.75;exitDx=0;exitDy=0;curved=1;flowAnimation=0;startArrow=classic;startFill=1;entryX=0.5;entryY=1;entryDx=0;entryDy=0;" parent="1" source="bqi6BstOvzk-IcpmwtKL-6" target="bqi6BstOvzk-IcpmwtKL-69" edge="1">
          <mxGeometry relative="1" as="geometry">
            <mxPoint x="537.5" y="230" as="sourcePoint" />
          </mxGeometry>
        </mxCell>
        <mxCell id="bqi6BstOvzk-IcpmwtKL-54" value="挂载/etc/nginx/nginx.conf" style="edgeLabel;html=1;align=center;verticalAlign=middle;resizable=0;points=[];" parent="bqi6BstOvzk-IcpmwtKL-27" vertex="1" connectable="0">
          <mxGeometry x="0.2644" y="-21" relative="1" as="geometry">
            <mxPoint x="-34" y="-35" as="offset" />
          </mxGeometry>
        </mxCell>
        <mxCell id="bqi6BstOvzk-IcpmwtKL-28" style="edgeStyle=orthogonalEdgeStyle;rounded=0;orthogonalLoop=1;jettySize=auto;html=1;exitX=0;exitY=0.25;exitDx=0;exitDy=0;entryX=0.5;entryY=1;entryDx=0;entryDy=0;curved=1;startArrow=classic;startFill=1;flowAnimation=0;" parent="1" source="bqi6BstOvzk-IcpmwtKL-6" target="bqi6BstOvzk-IcpmwtKL-70" edge="1">
          <mxGeometry relative="1" as="geometry" />
        </mxCell>
        <mxCell id="bqi6BstOvzk-IcpmwtKL-55" value="挂载/etc/nginx/proxy.conf" style="edgeLabel;html=1;align=center;verticalAlign=middle;resizable=0;points=[];" parent="bqi6BstOvzk-IcpmwtKL-28" vertex="1" connectable="0">
          <mxGeometry x="0.5049" y="-12" relative="1" as="geometry">
            <mxPoint y="-17" as="offset" />
          </mxGeometry>
        </mxCell>
        <mxCell id="bqi6BstOvzk-IcpmwtKL-29" style="edgeStyle=orthogonalEdgeStyle;rounded=0;orthogonalLoop=1;jettySize=auto;html=1;exitX=0.5;exitY=0;exitDx=0;exitDy=0;curved=1;flowAnimation=0;startArrow=classic;startFill=1;entryX=0.5;entryY=1;entryDx=0;entryDy=0;" parent="1" source="bqi6BstOvzk-IcpmwtKL-6" target="bqi6BstOvzk-IcpmwtKL-71" edge="1">
          <mxGeometry relative="1" as="geometry" />
        </mxCell>
        <mxCell id="bqi6BstOvzk-IcpmwtKL-56" value="挂载/etc/nginx/conf.d" style="edgeLabel;html=1;align=center;verticalAlign=middle;resizable=0;points=[];" parent="bqi6BstOvzk-IcpmwtKL-29" vertex="1" connectable="0">
          <mxGeometry x="0.2348" y="1" relative="1" as="geometry">
            <mxPoint x="1" y="-2" as="offset" />
          </mxGeometry>
        </mxCell>
        <mxCell id="bqi6BstOvzk-IcpmwtKL-31" style="edgeStyle=orthogonalEdgeStyle;rounded=0;orthogonalLoop=1;jettySize=auto;html=1;exitX=0.5;exitY=1;exitDx=0;exitDy=0;curved=1;flowAnimation=1;" parent="1" source="bqi6BstOvzk-IcpmwtKL-6" target="bqi6BstOvzk-IcpmwtKL-4" edge="1">
          <mxGeometry relative="1" as="geometry" />
        </mxCell>
        <mxCell id="bqi6BstOvzk-IcpmwtKL-33" value="路径：/api&lt;div&gt;端口号：5000&lt;/div&gt;" style="edgeLabel;html=1;align=center;verticalAlign=middle;resizable=0;points=[];" parent="bqi6BstOvzk-IcpmwtKL-31" vertex="1" connectable="0">
          <mxGeometry x="0.1137" y="-2" relative="1" as="geometry">
            <mxPoint x="-10" y="7" as="offset" />
          </mxGeometry>
        </mxCell>
        <mxCell id="bqi6BstOvzk-IcpmwtKL-32" style="edgeStyle=orthogonalEdgeStyle;rounded=0;orthogonalLoop=1;jettySize=auto;html=1;exitX=0.5;exitY=1;exitDx=0;exitDy=0;curved=1;flowAnimation=1;" parent="1" source="bqi6BstOvzk-IcpmwtKL-6" target="bqi6BstOvzk-IcpmwtKL-5" edge="1">
          <mxGeometry relative="1" as="geometry" />
        </mxCell>
        <mxCell id="bqi6BstOvzk-IcpmwtKL-34" value="路径：/&lt;div&gt;端口号：5173&lt;/div&gt;" style="edgeLabel;html=1;align=center;verticalAlign=middle;resizable=0;points=[];" parent="bqi6BstOvzk-IcpmwtKL-32" vertex="1" connectable="0">
          <mxGeometry x="0.1599" y="-4" relative="1" as="geometry">
            <mxPoint x="7" as="offset" />
          </mxGeometry>
        </mxCell>
        <mxCell id="bqi6BstOvzk-IcpmwtKL-6" value="反向代理服务&lt;div&gt;Nginx&lt;/div&gt;" style="rounded=1;whiteSpace=wrap;html=1;fillColor=#dae8fc;strokeColor=#333333;" parent="1" vertex="1">
          <mxGeometry x="415" y="170" width="100" height="40" as="geometry" />
        </mxCell>
        <mxCell id="bqi6BstOvzk-IcpmwtKL-15" style="edgeStyle=orthogonalEdgeStyle;rounded=0;orthogonalLoop=1;jettySize=auto;html=1;exitX=0.5;exitY=1;exitDx=0;exitDy=0;entryX=1;entryY=0.5;entryDx=0;entryDy=0;strokeColor=default;curved=1;flowAnimation=1;" parent="1" source="bqi6BstOvzk-IcpmwtKL-14" target="bqi6BstOvzk-IcpmwtKL-6" edge="1">
          <mxGeometry relative="1" as="geometry" />
        </mxCell>
        <mxCell id="bqi6BstOvzk-IcpmwtKL-20" value="暴露80/443端口" style="edgeLabel;html=1;align=center;verticalAlign=middle;resizable=0;points=[];" parent="bqi6BstOvzk-IcpmwtKL-15" vertex="1" connectable="0">
          <mxGeometry x="0.0386" y="-6" relative="1" as="geometry">
            <mxPoint y="-3" as="offset" />
          </mxGeometry>
        </mxCell>
        <mxCell id="bqi6BstOvzk-IcpmwtKL-14" value="&lt;div&gt;Port&lt;/div&gt;&lt;div&gt;80/443&lt;/div&gt;" style="ellipse;whiteSpace=wrap;html=1;aspect=fixed;spacing=0;fillColor=#f5f5f5;fontColor=#333333;strokeColor=#666666;" parent="1" vertex="1">
          <mxGeometry x="584" y="85" width="40" height="40" as="geometry" />
        </mxCell>
        <mxCell id="bqi6BstOvzk-IcpmwtKL-57" style="edgeStyle=orthogonalEdgeStyle;rounded=0;orthogonalLoop=1;jettySize=auto;html=1;exitX=0.5;exitY=0;exitDx=0;exitDy=0;curved=1;flowAnimation=1;" parent="1" source="bqi6BstOvzk-IcpmwtKL-21" target="bqi6BstOvzk-IcpmwtKL-1" edge="1">
          <mxGeometry relative="1" as="geometry" />
        </mxCell>
        <mxCell id="bqi6BstOvzk-IcpmwtKL-58" style="edgeStyle=orthogonalEdgeStyle;rounded=0;orthogonalLoop=1;jettySize=auto;html=1;exitX=0.5;exitY=0;exitDx=0;exitDy=0;curved=1;flowAnimation=1;" parent="1" source="bqi6BstOvzk-IcpmwtKL-21" target="bqi6BstOvzk-IcpmwtKL-2" edge="1">
          <mxGeometry relative="1" as="geometry" />
        </mxCell>
        <mxCell id="bqi6BstOvzk-IcpmwtKL-85" style="edgeStyle=orthogonalEdgeStyle;rounded=0;orthogonalLoop=1;jettySize=auto;html=1;exitX=0.5;exitY=0;exitDx=0;exitDy=0;entryX=0.5;entryY=1;entryDx=0;entryDy=0;curved=1;flowAnimation=1;" parent="1" source="bqi6BstOvzk-IcpmwtKL-21" target="bqi6BstOvzk-IcpmwtKL-3" edge="1">
          <mxGeometry relative="1" as="geometry">
            <Array as="points">
              <mxPoint x="539" y="500" />
              <mxPoint x="795" y="500" />
            </Array>
          </mxGeometry>
        </mxCell>
        <mxCell id="bqi6BstOvzk-IcpmwtKL-21" value="Worker服务&lt;div&gt;Celery异步任务&lt;/div&gt;" style="rounded=1;whiteSpace=wrap;html=1;fillColor=#dae8fc;strokeColor=#333333;" parent="1" vertex="1">
          <mxGeometry x="484" y="520" width="110" height="40" as="geometry" />
        </mxCell>
        <mxCell id="bqi6BstOvzk-IcpmwtKL-47" style="edgeStyle=orthogonalEdgeStyle;rounded=0;orthogonalLoop=1;jettySize=auto;html=1;exitX=0.5;exitY=1;exitDx=0;exitDy=0;curved=1;flowAnimation=1;" parent="1" source="bqi6BstOvzk-IcpmwtKL-4" target="bqi6BstOvzk-IcpmwtKL-1" edge="1">
          <mxGeometry relative="1" as="geometry" />
        </mxCell>
        <mxCell id="bqi6BstOvzk-IcpmwtKL-48" style="edgeStyle=orthogonalEdgeStyle;rounded=0;orthogonalLoop=1;jettySize=auto;html=1;exitX=0.5;exitY=1;exitDx=0;exitDy=0;curved=1;flowAnimation=1;" parent="1" source="bqi6BstOvzk-IcpmwtKL-4" target="bqi6BstOvzk-IcpmwtKL-2" edge="1">
          <mxGeometry relative="1" as="geometry" />
        </mxCell>
        <mxCell id="bqi6BstOvzk-IcpmwtKL-49" style="edgeStyle=orthogonalEdgeStyle;rounded=0;orthogonalLoop=1;jettySize=auto;html=1;exitX=0.5;exitY=1;exitDx=0;exitDy=0;curved=1;flowAnimation=1;" parent="1" source="bqi6BstOvzk-IcpmwtKL-4" target="bqi6BstOvzk-IcpmwtKL-3" edge="1">
          <mxGeometry relative="1" as="geometry" />
        </mxCell>
        <mxCell id="bqi6BstOvzk-IcpmwtKL-4" value="API服务&lt;div&gt;Flask-API&lt;/div&gt;" style="rounded=1;whiteSpace=wrap;html=1;fillColor=#f8cecc;strokeColor=#333333;" parent="1" vertex="1">
          <mxGeometry x="370" y="280" width="80" height="40" as="geometry" />
        </mxCell>
        <mxCell id="bqi6BstOvzk-IcpmwtKL-5" value="Web服务&lt;div&gt;Vue-UI&lt;/div&gt;" style="rounded=1;whiteSpace=wrap;html=1;fillColor=#f8cecc;strokeColor=#333333;" parent="1" vertex="1">
          <mxGeometry x="490" y="280" width="70" height="40" as="geometry" />
        </mxCell>
        <mxCell id="bqi6BstOvzk-IcpmwtKL-45" style="edgeStyle=orthogonalEdgeStyle;rounded=0;orthogonalLoop=1;jettySize=auto;html=1;exitX=0.5;exitY=0;exitDx=0;exitDy=0;entryX=0;entryY=0.5;entryDx=0;entryDy=0;curved=1;flowAnimation=1;" parent="1" source="bqi6BstOvzk-IcpmwtKL-36" target="bqi6BstOvzk-IcpmwtKL-1" edge="1">
          <mxGeometry relative="1" as="geometry" />
        </mxCell>
        <mxCell id="bqi6BstOvzk-IcpmwtKL-46" value="暴露5432" style="edgeLabel;html=1;align=center;verticalAlign=middle;resizable=0;points=[];" parent="bqi6BstOvzk-IcpmwtKL-45" vertex="1" connectable="0">
          <mxGeometry x="0.0076" relative="1" as="geometry">
            <mxPoint y="18" as="offset" />
          </mxGeometry>
        </mxCell>
        <mxCell id="bqi6BstOvzk-IcpmwtKL-36" value="&lt;div&gt;Port&lt;/div&gt;&lt;div&gt;6379&lt;/div&gt;" style="ellipse;whiteSpace=wrap;html=1;aspect=fixed;spacing=0;dashed=1;fillColor=#f5f5f5;fontColor=#333333;strokeColor=#666666;" parent="1" vertex="1">
          <mxGeometry x="330" y="440" width="40" height="40" as="geometry" />
        </mxCell>
        <mxCell id="bqi6BstOvzk-IcpmwtKL-72" style="edgeStyle=orthogonalEdgeStyle;rounded=0;orthogonalLoop=1;jettySize=auto;html=1;exitX=0.5;exitY=0;exitDx=0;exitDy=0;entryX=1;entryY=0.5;entryDx=0;entryDy=0;curved=1;flowAnimation=1;" parent="1" source="bqi6BstOvzk-IcpmwtKL-37" target="bqi6BstOvzk-IcpmwtKL-2" edge="1">
          <mxGeometry relative="1" as="geometry">
            <Array as="points">
              <mxPoint x="598" y="400" />
            </Array>
          </mxGeometry>
        </mxCell>
        <mxCell id="bqi6BstOvzk-IcpmwtKL-73" value="暴露6379" style="edgeLabel;html=1;align=center;verticalAlign=middle;resizable=0;points=[];" parent="bqi6BstOvzk-IcpmwtKL-72" vertex="1" connectable="0">
          <mxGeometry x="-0.2619" y="4" relative="1" as="geometry">
            <mxPoint y="8" as="offset" />
          </mxGeometry>
        </mxCell>
        <mxCell id="bqi6BstOvzk-IcpmwtKL-37" value="&lt;div&gt;Port&lt;/div&gt;&lt;div&gt;5432&lt;/div&gt;" style="ellipse;whiteSpace=wrap;html=1;aspect=fixed;spacing=0;dashed=1;fillColor=#f5f5f5;fontColor=#333333;strokeColor=#666666;" parent="1" vertex="1">
          <mxGeometry x="578" y="440" width="40" height="40" as="geometry" />
        </mxCell>
        <mxCell id="bqi6BstOvzk-IcpmwtKL-41" style="edgeStyle=orthogonalEdgeStyle;rounded=0;orthogonalLoop=1;jettySize=auto;html=1;exitX=0.5;exitY=0;exitDx=0;exitDy=0;entryX=1;entryY=0.5;entryDx=0;entryDy=0;curved=1;flowAnimation=1;" parent="1" source="bqi6BstOvzk-IcpmwtKL-38" target="bqi6BstOvzk-IcpmwtKL-3" edge="1">
          <mxGeometry relative="1" as="geometry" />
        </mxCell>
        <mxCell id="bqi6BstOvzk-IcpmwtKL-42" value="暴露8080" style="edgeLabel;html=1;align=center;verticalAlign=middle;resizable=0;points=[];" parent="bqi6BstOvzk-IcpmwtKL-41" vertex="1" connectable="0">
          <mxGeometry x="-0.3186" y="13" relative="1" as="geometry">
            <mxPoint x="11" y="20" as="offset" />
          </mxGeometry>
        </mxCell>
        <mxCell id="bqi6BstOvzk-IcpmwtKL-38" value="&lt;div&gt;Port&lt;/div&gt;&lt;div&gt;8080&lt;/div&gt;" style="ellipse;whiteSpace=wrap;html=1;aspect=fixed;spacing=0;dashed=1;fillColor=#f5f5f5;fontColor=#333333;strokeColor=#666666;" parent="1" vertex="1">
          <mxGeometry x="867" y="440" width="40" height="40" as="geometry" />
        </mxCell>
        <mxCell id="bqi6BstOvzk-IcpmwtKL-79" style="edgeStyle=orthogonalEdgeStyle;rounded=0;orthogonalLoop=1;jettySize=auto;html=1;exitX=0.5;exitY=0;exitDx=0;exitDy=0;entryX=0;entryY=0.5;entryDx=0;entryDy=0;curved=1;startArrow=classic;startFill=1;" parent="1" source="bqi6BstOvzk-IcpmwtKL-65" target="bqi6BstOvzk-IcpmwtKL-1" edge="1">
          <mxGeometry relative="1" as="geometry" />
        </mxCell>
        <mxCell id="bqi6BstOvzk-IcpmwtKL-80" value="挂载/data" style="edgeLabel;html=1;align=center;verticalAlign=middle;resizable=0;points=[];" parent="bqi6BstOvzk-IcpmwtKL-79" vertex="1" connectable="0">
          <mxGeometry x="0.1187" y="-6" relative="1" as="geometry">
            <mxPoint as="offset" />
          </mxGeometry>
        </mxCell>
        <mxCell id="bqi6BstOvzk-IcpmwtKL-65" value="./volumes/redis/data" style="shape=dataStorage;whiteSpace=wrap;html=1;fixedSize=1;size=5;fillColor=#d5e8d4;strokeColor=#333333;" parent="1" vertex="1">
          <mxGeometry x="191" y="445" width="130" height="30" as="geometry" />
        </mxCell>
        <mxCell id="bqi6BstOvzk-IcpmwtKL-76" style="edgeStyle=orthogonalEdgeStyle;rounded=0;orthogonalLoop=1;jettySize=auto;html=1;exitX=1;exitY=0.5;exitDx=0;exitDy=0;flowAnimation=0;curved=1;startArrow=classic;startFill=1;" parent="1" source="bqi6BstOvzk-IcpmwtKL-66" target="bqi6BstOvzk-IcpmwtKL-21" edge="1">
          <mxGeometry relative="1" as="geometry" />
        </mxCell>
        <mxCell id="bqi6BstOvzk-IcpmwtKL-77" value="挂载/app/api/storage" style="edgeLabel;html=1;align=center;verticalAlign=middle;resizable=0;points=[];" parent="bqi6BstOvzk-IcpmwtKL-76" vertex="1" connectable="0">
          <mxGeometry x="-0.0069" y="-2" relative="1" as="geometry">
            <mxPoint y="-2" as="offset" />
          </mxGeometry>
        </mxCell>
        <mxCell id="bqi6BstOvzk-IcpmwtKL-78" style="edgeStyle=orthogonalEdgeStyle;rounded=0;orthogonalLoop=1;jettySize=auto;html=1;exitX=0.5;exitY=0;exitDx=0;exitDy=0;entryX=0;entryY=0.75;entryDx=0;entryDy=0;curved=1;startArrow=classic;startFill=1;" parent="1" source="bqi6BstOvzk-IcpmwtKL-66" target="bqi6BstOvzk-IcpmwtKL-4" edge="1">
          <mxGeometry relative="1" as="geometry" />
        </mxCell>
        <mxCell id="bqi6BstOvzk-IcpmwtKL-81" value="挂在/app/api/storage" style="edgeLabel;html=1;align=center;verticalAlign=middle;resizable=0;points=[];" parent="bqi6BstOvzk-IcpmwtKL-78" vertex="1" connectable="0">
          <mxGeometry x="-0.2859" y="-50" relative="1" as="geometry">
            <mxPoint x="-2" as="offset" />
          </mxGeometry>
        </mxCell>
        <mxCell id="bqi6BstOvzk-IcpmwtKL-66" value="./volumes/app/storage" style="shape=dataStorage;whiteSpace=wrap;html=1;fixedSize=1;size=5;fillColor=#d5e8d4;strokeColor=#333333;" parent="1" vertex="1">
          <mxGeometry x="80" y="525" width="140" height="30" as="geometry" />
        </mxCell>
        <mxCell id="bqi6BstOvzk-IcpmwtKL-87" style="edgeStyle=orthogonalEdgeStyle;rounded=0;orthogonalLoop=1;jettySize=auto;html=1;exitX=0.5;exitY=0;exitDx=0;exitDy=0;entryX=1;entryY=0.5;entryDx=0;entryDy=0;curved=1;startArrow=classic;startFill=1;" parent="1" source="bqi6BstOvzk-IcpmwtKL-67" target="bqi6BstOvzk-IcpmwtKL-2" edge="1">
          <mxGeometry relative="1" as="geometry" />
        </mxCell>
        <mxCell id="bqi6BstOvzk-IcpmwtKL-88" value="挂载/var/lib/postgresql/data" style="edgeLabel;html=1;align=center;verticalAlign=middle;resizable=0;points=[];" parent="bqi6BstOvzk-IcpmwtKL-87" vertex="1" connectable="0">
          <mxGeometry x="0.3229" y="3" relative="1" as="geometry">
            <mxPoint x="59" y="27" as="offset" />
          </mxGeometry>
        </mxCell>
        <mxCell id="bqi6BstOvzk-IcpmwtKL-67" value="./volumes/db/data" style="shape=dataStorage;whiteSpace=wrap;html=1;fixedSize=1;size=5;fillColor=#d5e8d4;strokeColor=#333333;" parent="1" vertex="1">
          <mxGeometry x="630" y="445" width="120" height="30" as="geometry" />
        </mxCell>
        <mxCell id="bqi6BstOvzk-IcpmwtKL-83" style="edgeStyle=orthogonalEdgeStyle;rounded=0;orthogonalLoop=1;jettySize=auto;html=1;exitX=0.5;exitY=0;exitDx=0;exitDy=0;entryX=1;entryY=0.5;entryDx=0;entryDy=0;curved=1;startArrow=classic;startFill=1;" parent="1" source="bqi6BstOvzk-IcpmwtKL-68" target="bqi6BstOvzk-IcpmwtKL-3" edge="1">
          <mxGeometry relative="1" as="geometry" />
        </mxCell>
        <mxCell id="bqi6BstOvzk-IcpmwtKL-84" value="挂载/var/lib/weaviate" style="edgeLabel;html=1;align=center;verticalAlign=middle;resizable=0;points=[];" parent="bqi6BstOvzk-IcpmwtKL-83" vertex="1" connectable="0">
          <mxGeometry x="0.1497" relative="1" as="geometry">
            <mxPoint x="15" y="4" as="offset" />
          </mxGeometry>
        </mxCell>
        <mxCell id="bqi6BstOvzk-IcpmwtKL-68" value="./volumes/weaviate" style="shape=dataStorage;whiteSpace=wrap;html=1;fixedSize=1;size=5;fillColor=#d5e8d4;strokeColor=#333333;" parent="1" vertex="1">
          <mxGeometry x="917" y="445" width="130" height="30" as="geometry" />
        </mxCell>
        <mxCell id="bqi6BstOvzk-IcpmwtKL-69" value="./nginx/nginx.conf" style="shape=dataStorage;whiteSpace=wrap;html=1;fixedSize=1;size=5;fillColor=#d5e8d4;strokeColor=#333333;" parent="1" vertex="1">
          <mxGeometry x="125" y="90" width="120" height="30" as="geometry" />
        </mxCell>
        <mxCell id="bqi6BstOvzk-IcpmwtKL-70" value="./nginx/proxy.conf" style="shape=dataStorage;whiteSpace=wrap;html=1;fixedSize=1;size=5;fillColor=#d5e8d4;strokeColor=#333333;" parent="1" vertex="1">
          <mxGeometry x="250" y="90" width="130" height="30" as="geometry" />
        </mxCell>
        <mxCell id="bqi6BstOvzk-IcpmwtKL-71" value="./nginx/conf.d" style="shape=dataStorage;whiteSpace=wrap;html=1;fixedSize=1;size=5;fillColor=#d5e8d4;strokeColor=#333333;" parent="1" vertex="1">
          <mxGeometry x="386" y="90" width="130" height="30" as="geometry" />
        </mxCell>
      </root>
    </mxGraphModel>
  </diagram>
</mxfile>
